<svg width="54" height="50" viewBox="0 0 54 50" fill="none" xmlns="http://www.w3.org/2000/svg">
<g clip-path="url(#clip0_159604_529)">
<path d="M36.4997 13.4993H33.333C33.333 10.0002 30.4988 7.16602 26.9997 7.16602C23.5005 7.16602 20.6663 10.0002 20.6663 13.4993H17.4997C15.758 13.4993 14.333 14.9243 14.333 16.666V35.666C14.333 37.4077 15.758 38.8327 17.4997 38.8327H36.4997C38.2413 38.8327 39.6663 37.4077 39.6663 35.666V16.666C39.6663 14.9243 38.2413 13.4993 36.4997 13.4993ZM26.9997 10.3327C28.7413 10.3327 30.1663 11.7577 30.1663 13.4993H23.833C23.833 11.7577 25.258 10.3327 26.9997 10.3327ZM36.4997 35.666H17.4997V16.666H20.6663V19.8327C20.6663 20.7035 21.3788 21.416 22.2497 21.416C23.1205 21.416 23.833 20.7035 23.833 19.8327V16.666H30.1663V19.8327C30.1663 20.7035 30.8788 21.416 31.7497 21.416C32.6205 21.416 33.333 20.7035 33.333 19.8327V16.666H36.4997V35.666Z" fill="#002F52"/>
</g>
<defs>
<clipPath id="clip0_159604_529">
<rect width="38" height="38" fill="white" transform="translate(8 4)"/>
</clipPath>
</defs>
</svg>
